<svg width="1200" height="900" viewBox="0 0 1200 900" fill="none" xmlns="http://www.w3.org/2000/svg">
  <rect width="1200" height="900" fill="#12090B"/>
  <rect width="1200" height="900" fill="url(#bg)"/>
  <rect x="130" y="110" width="210" height="470" rx="20" fill="url(#banner)" opacity="0.92"/>
  <rect x="860" y="110" width="210" height="470" rx="20" fill="url(#banner)" opacity="0.92"/>
  <rect x="565" y="170" width="70" height="430" rx="20" fill="#0E0A0B"/>
  <rect x="430" y="515" width="340" height="70" rx="18" fill="#1D1214"/>
  <rect x="325" y="585" width="550" height="230" rx="28" fill="#140D10"/>
  <rect x="325" y="585" width="550" height="230" rx="28" stroke="#4C1D23" stroke-width="2"/>
  <circle cx="600" cy="260" r="74" fill="#1A1013"/>
  <rect x="532" y="332" width="136" height="188" rx="46" fill="#1A1013"/>
  <rect x="458" y="366" width="84" height="224" rx="36" transform="rotate(22 458 366)" fill="#1A1013"/>
  <rect x="658" y="350" width="84" height="246" rx="36" transform="rotate(-28 658 350)" fill="#1A1013"/>
  <rect x="530" y="510" width="52" height="178" rx="24" fill="#130D0F"/>
  <rect x="618" y="510" width="52" height="178" rx="24" fill="#130D0F"/>
  <circle cx="600" cy="236" r="24" fill="#2F151B"/>
  <circle cx="236" cy="312" r="58" fill="#320E14" opacity="0.7"/>
  <circle cx="964" cy="312" r="58" fill="#320E14" opacity="0.7"/>
  <rect x="220" y="508" width="42" height="110" rx="18" fill="#1A1113"/>
  <rect x="938" y="508" width="42" height="110" rx="18" fill="#1A1113"/>
  <rect x="150" y="625" width="900" height="180" rx="90" fill="url(#floorGlow)" opacity="0.6"/>
  <path d="M250 760C360 700 448 678 600 678C752 678 840 700 950 760V900H250V760Z" fill="#0C0809"/>
  <path d="M210 170H260V470H210L232 320L210 170Z" fill="#E14554" opacity="0.7"/>
  <path d="M990 170H940V470H990L968 320L990 170Z" fill="#E14554" opacity="0.7"/>
  <circle cx="235" cy="205" r="36" fill="#F3D4A7" opacity="0.14"/>
  <circle cx="965" cy="205" r="36" fill="#F3D4A7" opacity="0.14"/>
  <text x="600" y="118" text-anchor="middle" fill="#E8D6B0" fill-opacity="0.82" font-family="Georgia, serif" font-size="48" font-weight="700" letter-spacing="10">REGIME ASCENDANT</text>
  <text x="600" y="836" text-anchor="middle" fill="#D9C7A0" fill-opacity="0.72" font-family="Consolas, monospace" font-size="24" font-weight="700" letter-spacing="7">AUTHORITARIAN COUNCIL GATHERS</text>
  <defs>
    <linearGradient id="bg" x1="600" y1="0" x2="600" y2="900" gradientUnits="userSpaceOnUse">
      <stop stop-color="#2B0E14"/>
      <stop offset="0.45" stop-color="#14090B"/>
      <stop offset="1" stop-color="#090506"/>
    </linearGradient>
    <linearGradient id="banner" x1="235" y1="110" x2="235" y2="580" gradientUnits="userSpaceOnUse">
      <stop stop-color="#7E1925"/>
      <stop offset="1" stop-color="#2D0B12"/>
    </linearGradient>
    <radialGradient id="floorGlow" cx="0" cy="0" r="1" gradientUnits="userSpaceOnUse" gradientTransform="translate(600 715) rotate(90) scale(145 360)">
      <stop stop-color="#8E2330"/>
      <stop offset="1" stop-color="#8E2330" stop-opacity="0"/>
    </radialGradient>
  </defs>
</svg>
