<svg width="1200" height="900" viewBox="0 0 1200 900" fill="none" xmlns="http://www.w3.org/2000/svg">
  <rect width="1200" height="900" fill="#081017"/>
  <rect width="1200" height="900" fill="url(#bg)"/>
  <circle cx="600" cy="210" r="210" fill="url(#skyGlow)" opacity="0.82"/>
  <path d="M0 650C140 604 276 584 420 584C585 584 673 626 820 626C950 626 1054 592 1200 548V900H0V650Z" fill="#0B1218"/>
  <path d="M150 630L366 460L502 644H150V630Z" fill="#121E28"/>
  <path d="M332 520L424 430L588 644H374L332 520Z" fill="#172833"/>
  <path d="M826 644C826 584 858 538 914 516C970 494 1022 508 1068 548V644H826Z" fill="#121C22"/>
  <circle cx="960" cy="474" r="56" fill="#19252C"/>
  <rect x="914" y="522" width="96" height="138" rx="34" fill="#19252C"/>
  <rect x="865" y="540" width="64" height="146" rx="28" transform="rotate(16 865 540)" fill="#19252C"/>
  <path d="M766 252L896 244L854 426L724 434L766 252Z" fill="#6D1E29" opacity="0.86"/>
  <path d="M766 252L896 244L824 340L854 426L724 434L784 334L766 252Z" fill="#A6303D" opacity="0.88"/>
  <path d="M304 230H430V436H304V230Z" fill="#2A4E73" opacity="0.88"/>
  <path d="M430 230L512 298V504L430 436V230Z" fill="#3B739F" opacity="0.95"/>
  <path d="M304 436L430 436L512 504H392L304 436Z" fill="#6FC7F7" opacity="0.9"/>
  <rect x="332" y="290" width="72" height="14" rx="7" fill="#DFF4FF" opacity="0.68"/>
  <rect x="332" y="330" width="108" height="14" rx="7" fill="#DFF4FF" opacity="0.48"/>
  <rect x="332" y="370" width="94" height="14" rx="7" fill="#DFF4FF" opacity="0.36"/>
  <circle cx="956" cy="458" r="18" fill="#2A343B"/>
  <path d="M0 760C126 714 252 690 398 690C578 690 692 734 854 734C986 734 1090 710 1200 674V900H0V760Z" fill="#05080B"/>
  <text x="600" y="118" text-anchor="middle" fill="#E5F7FF" fill-opacity="0.9" font-family="Georgia, serif" font-size="48" font-weight="700" letter-spacing="10">REPUBLIC SECURED</text>
  <text x="600" y="840" text-anchor="middle" fill="#D2EAF6" fill-opacity="0.74" font-family="Consolas, monospace" font-size="24" font-weight="700" letter-spacing="7">THE REGIME COLLAPSES INTO SILENCE</text>
  <defs>
    <linearGradient id="bg" x1="600" y1="0" x2="600" y2="900" gradientUnits="userSpaceOnUse">
      <stop stop-color="#153049"/>
      <stop offset="0.46" stop-color="#0C1821"/>
      <stop offset="1" stop-color="#06090C"/>
    </linearGradient>
    <radialGradient id="skyGlow" cx="0" cy="0" r="1" gradientUnits="userSpaceOnUse" gradientTransform="translate(600 210) rotate(90) scale(210 265)">
      <stop stop-color="#9EECFF"/>
      <stop offset="1" stop-color="#9EECFF" stop-opacity="0"/>
    </radialGradient>
  </defs>
</svg>
