<svg class="secret-card" xmlns="http://www.w3.org/2000/svg" xmlns:xlink="http://www.w3.org/1999/xlink" width="320" height="467.65" viewBox="0 0 257.9 376.9">
	<style>
		.secret-main-game-0 { fill: #f4b560; opacity: 0.1; }
		.secret-main-game-1 { }
		.secret-main-game-2 { fill: #fcebcf; opacity: 0.05; }
		.secret-main-game-3 { fill: #d95843; }
		.secret-main-game-4 { }
		.secret-main-game-5 { fill: #fcebcf; }
		.secret-main-game-6 { fill: #1c1917; }
		.secret-main-game-7 { fill: #1c1917; opacity: 0.2; }
		.secret-main-game-8 { fill: #fcebcf; }
		.secret-main-game-9 { fill: #1c1917; }
		.secret-main-game-10 { fill: #1c1917; }
		.secret-main-game-11 { fill: #1c1917; }
		.secret-main-game-12 { fill: #fcebcf; }
		.secret-main-game-13 { fill: #fcebcf; opacity: 0.8; }
		.secret-main-game-14 { fill: #d95843; }
		.secret-main-game-15 { fill: #1c1917; }
		.secret-main-game-16 { fill: #1c1917; }
		.secret-main-game-17 { fill: #1c1917; }
		.secret-main-game-18 { fill: #1c1917; }
		.secret-main-game-19 { fill: #1c1917; }
		.secret-main-game-20 { fill: #1c1917; }
		.secret-main-game-21 { fill: #1c1917; }
		.secret-main-game-22 { fill: #1c1917; opacity: 0.3; }
		.secret-main-game-23 { opacity: 0.2; }
		.secret-multiply { mix-blend-mode: multiply; }
	</style>
	<g>
		<g>
			<g>
				<g>
					<g>
						<g>
							<g>
								<polygon class="secret-main-game-0" points="-10.3,392 268.3,390.3 270.8,-8.9 -10.3,-8.9"></polygon>
							</g>
						</g>
					</g>
				</g>
				<g>
					<defs>
						<rect id="secret-main-game-clip-1" x="-10.3" y="-8.9" width="278.5" height="399.2"></rect>
					</defs>
					<clipPath id="secret-main-game-clip-2">
						<use xlink:href="#secret-main-game-clip-1" style="overflow:visible;"></use>
					</clipPath>
					<g class="secret-main-game-1 secret-multiply">
						<g>
							<g>
								<g>
									<g>
										<rect x="-45.2" y="-29" class="secret-main-game-2" width="321.1" height="508.5"></rect>
									</g>
								</g>
							</g>
						</g>
						<g>
							<g>
								<g>
									<polygon class="secret-main-game-3" points="62.9,266.7 97.8,289.9 126.7,284.8 159.4,294 187.3,334.8 185.9,384.9 62.2,381.4"></polygon>
								</g>
							</g>
						</g>
						<g class="secret-main-game-4">
							<g>
								<g>
									<polygon class="secret-main-game-5" points="130,379.1 98.4,379.1 109.9,284.9 141.4,284.9"></polygon>
								</g>
							</g>
						</g>
						<g>
							<g>
								<g>
									<path class="secret-main-game-6" d="M78.8,376.6c-4.3,0-8.3-2.4-10.4-6.4c-2.8-5.7-0.5-12.7,5.2-15.5l41.1-20.5
										c31.4-15.6,59.5-38.5,81.1-66.1c3.7-4.8,4.5-11.2,2-16.7c-2.6-5.8-0.1-12.7,5.7-15.3c5.8-2.7,12.7-0.1,15.3,5.7
										c6.1,13.4,4.3,29-4.8,40.6c-23.7,30.3-54.5,55.4-89,72.6L84,375.4C82.3,376.2,80.6,376.6,78.8,376.6z"></path>
								</g>
							</g>
						</g>
						<g>
							<g>
								<g>
									<polygon class="secret-main-game-5" points="-10,382.2 70.2,382.8 74.3,272.1 55.8,258.3 38,213.4 -6.9,225.6 								"></polygon>
								</g>
							</g>
						</g>
						<g>
							<g>
								<g>
									<path class="secret-main-game-7" d="M40.3,249l15.1,14.9c28.1,27.7,66.5,37.4,102.1,25.8l11.6-3.8c15.3-5,28.9-15.2,39.1-29.2l4-5.5
										L40.3,249z"></path>
								</g>
							</g>
						</g>
						<g>
							<g>
								<g>
									<path class="secret-main-game-8" d="M59.3,264.2l28.6,51.5c1.3,2.4,3.7,4,6.4,4.3h0c2.8,0.3,5.6-0.8,7.4-3l18.8-23.1
										c1.4-1.7,4.1-1.5,5.3,0.4l12.1,20.6c1.7,2.9,4.7,4.8,8.1,5.1h0c3.1,0.3,6.1-0.8,8.3-3l39.7-43.5l-0.2,0.1
										c-22,9.8-45.9,14.9-70,14.8h0h0c-22.7-1.1-44.5-9-62.6-22.7L59.3,264.2z"></path>
								</g>
							</g>
						</g>
						<g>
							<g>
								<g>
									<path class="secret-main-game-9" d="M147.4,322.5c-0.4,0-0.8,0-1.2-0.1c-4.2-0.4-7.9-2.8-10-6.4l-12.7-21.5L104,318.5
										c-2.3,2.8-5.9,4.3-9.5,3.9c-3.5-0.4-6.6-2.4-8.3-5.5l-28.5-51.5l4.3-2.4l28.6,51.5c0.9,1.7,2.6,2.8,4.5,3
										c2,0.2,3.9-0.6,5.2-2.1l19.7-24.2c1-1.2,2.5-1.8,4-1.7c1.5,0.1,2.9,1,3.7,2.3l12.8,21.8c1.3,2.2,3.6,3.7,6.2,3.9
										c2.4,0.2,4.7-0.6,6.4-2.3l39.6-43.4l3.7,3.3l-39.7,43.5C154.1,321.1,150.8,322.5,147.4,322.5z"></path>
								</g>
							</g>
						</g>
						<g>
							<g>
								<g>
									<polygon class="secret-main-game-5" points="216.8,219.7 194.2,271 159.3,381.9 261.6,381.8 261.3,225.6 								"></polygon>
								</g>
							</g>
						</g>
						<g>
							<g>
								<g>
									<polygon class="secret-main-game-10" points="118.6,363.2 116.2,358.9 136.4,348 126.1,327.7 106,338.6 103.6,334.2 128.2,321 143,350 
																		"></polygon>
								</g>
							</g>
						</g>
						<g>
							<g>
								<g>
									
										<rect x="119.5" y="329.9" transform="matrix(0.8988 -0.4384 0.4384 0.8988 -138.0251 88.1968)" class="secret-main-game-10" width="5" height="26.1"></rect>
								</g>
							</g>
						</g>
						<g>
							<g>
								<g>
									<path class="secret-main-game-11" d="M34.7,378.6c-0.9,0-1.8-0.5-2.2-1.3l-33-64.1c-0.4-0.8-0.4-1.8,0.2-2.6c0.5-0.8,1.4-1.1,2.4-1
										l38.2,5.3l-17.4-5.6c-0.6-0.2-1.2-0.7-1.5-1.3c-0.3-0.6-0.3-1.3-0.1-1.9l18.2-52c0.5-1.3,1.9-2,3.2-1.5
										c1.3,0.5,2,1.9,1.5,3.2l-17.4,49.6l42.4,13.5c1.2,0.4,1.9,1.7,1.7,2.9c-0.3,1.3-1.5,2.1-2.8,1.9l-62-8.6L36.9,375
										c0.6,1.2,0.1,2.7-1.1,3.3C35.5,378.5,35.1,378.6,34.7,378.6z"></path>
								</g>
							</g>
						</g>
						<g>
							<g>
								<g>
									<path class="secret-main-game-11" d="M202.6,377.7c-0.6,0-1.2-0.2-1.6-0.6c-1-0.9-1.1-2.5-0.2-3.5l43.9-50.6l-53-2.9
										c-1.3-0.1-2.3-1.1-2.3-2.3c-0.1-1.3,0.8-2.4,2-2.6l35.8-6.6l-6-57.9c-0.1-1.4,0.8-2.6,2.2-2.7c1.4-0.1,2.6,0.8,2.7,2.2
										l6.3,60.1c0.1,1.3-0.7,2.5-2,2.7l-17.5,3.2l37.1,2c0.9,0.1,1.8,0.6,2.1,1.5c0.4,0.9,0.2,1.9-0.4,2.6l-47.2,54.5
										C203.9,377.4,203.2,377.7,202.6,377.7z"></path>
								</g>
							</g>
						</g>
						<g>
							<g>
								<g>
									<path class="secret-main-game-11" d="M49.7,302.2c-0.1,0-0.3,0-0.4,0L36.6,300c-1.3-0.2-2.3-1.5-2-2.9c0.2-1.4,1.5-2.3,2.9-2l12.7,2.2
										c1.3,0.2,2.3,1.5,2,2.9C51.9,301.4,50.9,302.2,49.7,302.2z"></path>
								</g>
							</g>
						</g>
						<g>
							<g>
								<g>
									<path class="secret-main-game-11" d="M203.4,304.4c-1.3,0-2.4-1-2.5-2.3c-0.1-1.4,0.9-2.6,2.3-2.7l13.8-1.1c1.4-0.1,2.6,0.9,2.7,2.3
										c0.1,1.4-0.9,2.6-2.3,2.7l-13.8,1.1C203.5,304.4,203.5,304.4,203.4,304.4z"></path>
								</g>
							</g>
						</g>
						<g>
							<g>
								<g>
									
										<rect x="75.7" y="134.1" transform="matrix(0.9944 0.1053 -0.1053 0.9944 18.7483 -12.3049)" class="secret-main-game-3" width="100.3" height="74.4"></rect>
								</g>
							</g>
						</g>
						<g>
							<g>
								<g>
									
										<ellipse transform="matrix(0.1053 -0.9944 0.9944 0.1053 -130.2227 221.042)" class="secret-main-game-3" cx="57.7" cy="182.9" rx="54.8" ry="54.8"></ellipse>
								</g>
							</g>
						</g>
						<g>
							<g>
								<g>
									
										<ellipse transform="matrix(0.1053 -0.9944 0.9944 0.1053 -14.0769 372.0847)" class="secret-main-game-3" cx="199.7" cy="193.9" rx="54.8" ry="54.8"></ellipse>
								</g>
							</g>
						</g>
						<g>
							<g>
								<g>
									<g>
										<path class="secret-main-game-12" d="M100.7,73.2l-7.3,22.2c-1,3-5.3,5.4-9.6,5.3l-19.9-0.6c-5.5-0.2-10.6,3.7-9.7,7.3l1.2,4.8
											c0.2,0.6,0.5,1.2,1,1.8l24,24.9c0.1,0.1,0.2,0.2,0.3,0.3l11,14c0.9,1.2,2.6,2,4.6,2.2l36.1,3.8c1.8,0.2,3.8-0.1,5.6-0.8
											l77.8-30.7c1.2-0.5,2.3-1.1,3.1-1.9v0c3.4-3.2,2.1-7.2-2.7-8.1l-19.1-3.6c-4-0.8-5.7-3.7-3.9-6.6l14.3-23.3
											c2.3-3.7-1.2-7.2-6.8-6.8l-27.5,8.6c-2.8,0.2-5.3-0.6-6.6-2.1l-1.1-1.3c-1.9-2.3-6.5-2.9-10.4-1.2l-8.5,3.6
											c-2.6,1.1-5.5,1.3-7.8,0.5L113,68.5C108.4,66.9,101.9,69.4,100.7,73.2z"></path>
									</g>
								</g>
							</g>
						</g>
						<g>
							<g>
								<g>
									
										<ellipse transform="matrix(0.1053 -0.9944 0.9944 0.1053 -7.2534 323.1372)" class="secret-main-game-13" cx="176" cy="165.6" rx="23.4" ry="23.4"></ellipse>
								</g>
							</g>
						</g>
						<g>
							<g>
								<g>
									<path class="secret-main-game-5" d="M176.1,174.8c6.8,0.7,12.9-0.8,16.7-3.6c1.1-0.9,1.4-3,0.4-4.1c-3.1-3.6-8.8-6.3-15.5-7
										s-12.9,0.8-16.7,3.6c-1.1,0.9-1.4,3-0.4,4.1C163.6,171.3,169.3,174.1,176.1,174.8z"></path>
								</g>
							</g>
						</g>
						<g>
							<g>
								<g>
									<path class="secret-main-game-14" d="M155.3,164.4c-5.6,0-11.2-1.2-16.5-3.8l9.4-19.3c6.1,3,13.6,1.8,18.6-2.9c6.6-6.3,15.3-9.7,24.4-9.7
										l11.6,0l0,21.5l-11.6,0c-3.6,0-7,1.4-9.6,3.8C174.3,160.8,164.8,164.4,155.3,164.4z"></path>
								</g>
							</g>
						</g>
						<g>
							<g>
								<g>
									
										<ellipse transform="matrix(0.1053 -0.9944 0.9944 0.1053 -87.557 212.3277)" class="secret-main-game-13" cx="74.2" cy="154.8" rx="23.4" ry="18.4"></ellipse>
								</g>
							</g>
						</g>
						<g>
							<g>
								<g>
									<path class="secret-main-game-5" d="M71.3,163.7c-5.3-0.6-9.8-3.2-12.1-6.6c-0.7-1.1-0.5-3.2,0.4-4.1c3-2.9,7.9-4.5,13.2-4
										c5.3,0.6,9.8,3.2,12.1,6.6c0.7,1.1,0.5,3.2-0.4,4.1C81.5,162.6,76.6,164.2,71.3,163.7z"></path>
								</g>
							</g>
						</g>
						<g>
							<g>
								<g>
									<path class="secret-main-game-14" d="M96.2,158.3c-10.7,0-20.6-6.2-26.4-17.1c-1.2-2.4-3-4-4.8-4.4l-8.9-2.2l5.1-20.9l8.9,2.2
										c7.9,1.9,14.6,7.3,18.7,15.2c0.9,1.7,4.2,7.1,9.7,5.2l6.8,20.4C102.3,157.8,99.2,158.3,96.2,158.3z"></path>
								</g>
							</g>
						</g>
						<g>
							<g>
								<g>
									<path class="secret-main-game-15" d="M214.1,214.4L214.1,214.4c3.6,9.7,12.8,16.2,23.1,16.5l3.2,0.1l-13.8,12.6
										c-30.2,27.6-71,40.7-111.6,35.6h0c-37.7-4.7-72-24.5-94.7-55L10.4,211h0c10.2,1.1,19.4-6.3,20.5-16.5l0.5-4.4l86.6,17.1"></path>
								</g>
							</g>
						</g>
						<g>
							<g>
								<g>
									<path class="secret-main-game-16" d="M110,176.5c3.5,5.6,4.3,7.4,1.6,10.1s-7.6,5.3-11.2-0.4c-3.5-5.6-4.3-12.4-1.6-15.1
										C101.5,168.4,106.5,170.8,110,176.5z"></path>
								</g>
							</g>
						</g>
						<g>
							<g>
								<g>
									<path class="secret-main-game-16" d="M135.7,190.1c-4.6,4.8-10,1.1-12-2.1c-2-3.2,0.1-4.7,4.8-9.5c4.6-4.8,10-6,12-2.9
										C142.5,178.9,140.3,185.3,135.7,190.1z"></path>
								</g>
							</g>
						</g>
						<g>
							<g>
								<g>
									<path class="secret-main-game-17" d="M198.7,205.5l-2.6-4.2l7.8-4.8c5.2-5.2,8.2-12,8.5-19.3l0.3-5.8l5,0.2l-0.3,5.8
										c-0.4,8.6-4,16.7-10.2,22.8l-0.4,0.3L198.7,205.5z"></path>
								</g>
							</g>
						</g>
						<g>
							<g>
								<g>
									<path class="secret-main-game-17" d="M55.6,183.7l-7.2-7c-4.8-7.2-6.6-15.9-5.2-24.4l1-5.7l4.9,0.8l-1,5.7c-1.2,7.2,0.3,14.5,4.3,20.7
										l6.7,6.4L55.6,183.7z"></path>
								</g>
							</g>
						</g>
						<g>
							<g>
								<g>
									<path class="secret-main-game-18" d="M125.9,146.2c-0.6,0-1.3-0.1-1.9-0.4c-1.8-0.7-3-2.3-3.2-4.2l0-0.1l0.1-35.7l5,0l-0.1,35.4
										c0,0,0,0,0.1,0.1c0,0,0.1,0,0.1,0l28.8-33.6l3.8,3.2l-29.2,34.1C128.2,145.7,127.1,146.2,125.9,146.2z"></path>
								</g>
							</g>
						</g>
						<g>
							<g>
								<g>
									<path class="secret-main-game-17" d="M105.3,156.5l9.3,9.6c2.8,2.9,7.2,3.6,10.7,1.7l14-7.4l0.6-8l-32.8-6.8L105.3,156.5z"></path>
								</g>
							</g>
						</g>
						<g>
							<g>
								<g>
									<path class="secret-main-game-7" d="M219.4,240.5c-2.2,20.4-50,41.5-105.6,35.6s-92.4-35.9-90.3-56.3s38,18.6,93.6,24.5
										S221.6,220.1,219.4,240.5z"></path>
								</g>
							</g>
						</g>
						<g>
							<g>
								<g>
									<path class="secret-main-game-17" d="M234.7,229l-4.1-2.7c4.1-6.2,2.7-14.6-3.1-19.2l-1.3-1l3-3.9l1.3,1C238.4,209.3,240.3,220.6,234.7,229
										z"></path>
								</g>
							</g>
						</g>
						<g>
							<g>
								<g>
									<path class="secret-main-game-17" d="M14.6,201.5c-3.7-9.3,0.5-20,9.5-24.4l1.5-0.7l2.2,4.5l-1.5,0.7c-6.7,3.2-9.8,11.2-7.1,18.1
										L14.6,201.5z"></path>
								</g>
							</g>
						</g>
						<g>
							<g>
								<g>
									<polygon class="secret-main-game-16" points="46.4,197.3 212.8,218.2 138.9,234.7 95.8,228.5 58.5,214.6 								"></polygon>
								</g>
							</g>
						</g>
						<g>
							<g>
								<g>
									<path class="secret-main-game-19" d="M135.7,239.1c-25.3,0-50.5-5.4-73.7-15.9c-0.3-0.1-0.6-0.3-0.8-0.5l-33.1-25.2c-1.8-1.4-2.2-4-0.8-5.8
										c1.4-1.8,4-2.2,5.8-0.8l32.8,24.9c26.8,12,56.2,16.9,85.2,14.3l68.9-14.7c2.2-0.5,4.4,0.9,4.9,3.2c0.5,2.2-0.9,4.4-3.2,4.9
										l-69.1,14.7c-0.2,0-0.3,0.1-0.5,0.1C146.6,238.8,141.1,239.1,135.7,239.1z"></path>
								</g>
							</g>
						</g>
						<g>
							<g>
								<g>
									<path class="secret-main-game-15" d="M192.3,229.1c-0.1,0-0.3,0-0.4,0c-2.3-0.2-3.9-2.3-3.7-4.5l0.6-5.9c0.2-2.3,2.3-3.9,4.5-3.7
										c2.3,0.2,3.9,2.3,3.7,4.5l-0.6,5.9C196.2,227.6,194.4,229.1,192.3,229.1z"></path>
								</g>
							</g>
							<g>
								<g>
									<path class="secret-main-game-15" d="M177.8,228.3c-0.1,0-0.3,0-0.4,0c-2.3-0.2-3.9-2.3-3.7-4.5l0.6-5.9c0.2-2.3,2.3-3.9,4.5-3.7
										c2.3,0.2,3.9,2.3,3.7,4.5l-0.6,5.9C181.6,226.8,179.8,228.3,177.8,228.3z"></path>
								</g>
							</g>
							<g>
								<g>
									<path class="secret-main-game-15" d="M163.2,227.5c-0.1,0-0.3,0-0.4,0c-2.3-0.2-3.9-2.3-3.7-4.5l0.6-5.9c0.2-2.3,2.3-3.9,4.5-3.7
										c2.3,0.2,3.9,2.3,3.7,4.5l-0.6,5.9C167.1,226,165.3,227.5,163.2,227.5z"></path>
								</g>
							</g>
							<g>
								<g>
									<path class="secret-main-game-15" d="M148.6,226.7c-0.1,0-0.3,0-0.4,0c-2.3-0.2-3.9-2.3-3.7-4.5l0.6-5.9c0.2-2.3,2.3-3.9,4.5-3.7
										c2.3,0.2,3.9,2.3,3.7,4.5l-0.6,5.9C152.5,225.2,150.7,226.7,148.6,226.7z"></path>
								</g>
							</g>
							<g>
								<g>
									<path class="secret-main-game-15" d="M134,225.9c-0.1,0-0.3,0-0.4,0c-2.3-0.2-3.9-2.3-3.7-4.5l0.6-5.9c0.2-2.3,2.3-3.9,4.5-3.7
										c2.3,0.2,3.9,2.3,3.7,4.5l-0.6,5.9C137.9,224.3,136.1,225.9,134,225.9z"></path>
								</g>
							</g>
							<g>
								<g>
									<path class="secret-main-game-15" d="M119.4,225.1c-0.1,0-0.3,0-0.4,0c-2.3-0.2-3.9-2.3-3.7-4.5l0.6-5.9c0.2-2.3,2.3-3.9,4.5-3.7
										c2.3,0.2,3.9,2.3,3.7,4.5l-0.6,5.9C123.3,223.5,121.5,225.1,119.4,225.1z"></path>
								</g>
							</g>
							<g>
								<g>
									<path class="secret-main-game-15" d="M105.5,221.8c-0.1,0-0.3,0-0.4,0c-2.3-0.2-3.9-2.3-3.7-4.5l0.6-5.9c0.2-2.3,2.3-3.9,4.5-3.7
										c2.3,0.2,3.9,2.3,3.7,4.5l-0.6,5.9C109.4,220.2,107.6,221.8,105.5,221.8z"></path>
								</g>
							</g>
							<g>
								<g>
									<path class="secret-main-game-15" d="M91.6,218.5c-0.1,0-0.3,0-0.4,0c-2.3-0.2-3.9-2.3-3.7-4.5l0.6-5.9c0.2-2.3,2.3-3.9,4.5-3.7
										c2.3,0.2,3.9,2.3,3.7,4.5l-0.6,5.9C95.5,216.9,93.7,218.5,91.6,218.5z"></path>
								</g>
							</g>
							<g>
								<g>
									<path class="secret-main-game-15" d="M77.7,215.2c-0.1,0-0.3,0-0.4,0c-2.3-0.2-3.9-2.3-3.7-4.5l0.6-5.9c0.2-2.3,2.3-3.9,4.5-3.7
										c2.3,0.2,3.9,2.3,3.7,4.5l-0.6,5.9C81.6,213.6,79.8,215.2,77.7,215.2z"></path>
								</g>
							</g>
							<g>
								<g>
									<path class="secret-main-game-15" d="M63.8,211.9c-0.1,0-0.3,0-0.4,0c-2.3-0.2-3.9-2.3-3.7-4.5l0.6-5.9c0.2-2.3,2.3-3.9,4.5-3.7
										c2.3,0.2,3.9,2.3,3.7,4.5l-0.6,5.9C67.7,210.3,65.9,211.9,63.8,211.9z"></path>
								</g>
							</g>
							<g>
								<g>
									<path class="secret-main-game-15" d="M49.9,208.6c-0.1,0-0.3,0-0.4,0c-2.3-0.2-3.9-2.3-3.7-4.5l0.6-5.9c0.2-2.3,2.3-3.9,4.5-3.7
										c2.3,0.2,3.9,2.3,3.7,4.5l-0.6,5.9C53.8,207,52,208.6,49.9,208.6z"></path>
								</g>
							</g>
						</g>
						<g>
							<g>
								<g>
									<path class="secret-main-game-6" d="M220.6,223.1c-0.1,0-0.3,0-0.4,0L113.7,215c-0.2,0-0.4,0-0.6-0.1l-83.7-16.4c-2.7-0.5-4.4-3.1-3.9-5.8
										c0.5-2.7,3.1-4.4,5.8-3.9l83.4,16.3l106.3,8.1c2.7,0.2,4.8,2.6,4.6,5.3C225.4,221.1,223.2,223.1,220.6,223.1z"></path>
								</g>
							</g>
						</g>
						<g>
							<g>
								<g>
									
										<ellipse transform="matrix(0.1053 -0.9944 0.9944 0.1053 -109.6129 151.4907)" class="secret-main-game-20" cx="29.4" cy="136.7" rx="3.3" ry="3.3"></ellipse>
								</g>
							</g>
						</g>
						<g>
							<g>
								<g>
									
										<ellipse transform="matrix(0.1053 -0.9944 0.9944 0.1053 57.1418 374.0549)" class="secret-main-game-20" cx="236.5" cy="155.3" rx="3.3" ry="3.3"></ellipse>
								</g>
							</g>
						</g>
						<g>
							<g>
								<g>
									
										<ellipse transform="matrix(0.1053 -0.9944 0.9944 0.1053 52.3917 346.7746)" class="secret-main-game-20" cx="218.9" cy="144.3" rx="5" ry="5"></ellipse>
								</g>
							</g>
						</g>
						<g>
							<g>
								<g>
									
										<ellipse transform="matrix(0.1053 -0.9944 0.9944 0.1053 -99.8229 154.6368)" class="secret-main-game-20" cx="36" cy="132.8" rx="5" ry="5"></ellipse>
								</g>
							</g>
						</g>
						<g>
							<g>
								<g>
									
										<ellipse transform="matrix(0.1053 -0.9944 0.9944 0.1053 -82.7729 166.8588)" class="secret-main-game-20" cx="51.3" cy="129.4" rx="3.3" ry="3.3"></ellipse>
								</g>
							</g>
						</g>
						<g>
							<g>
								<g>
									<path class="secret-main-game-20" d="M94.6,136.9l11.3-0.9h0c4.5,2.1,6.3,7.5,4,11.8l-4.6,8.6l-5.9-2.3c-5.8-2.3-8.5-9-6-14.6L94.6,136.9z"></path>
								</g>
							</g>
						</g>
						<g>
							<g>
								<g>
									<path class="secret-main-game-20" d="M151,142.5l-3.1-0.8c-5.7-1.5-11.1,3.4-10.2,9.2l1.6,9.5l2.8-0.7c6.7-1.7,10.8-8.4,9.3-15.2L151,142.5
										z"></path>
							</g>
						</g>
					</g>
					<g>
						<g>
							<g>
								<path class="secret-main-game-9" d="M89.9,275.5c-3,0-7.1-1.2-12.3-3.5c-7.8-3.6-17.3-9.4-26.7-16.6c-13.6-10.3-35.1-29.8-29.3-37.5
									c0.8-1,1.8-1.6,3-1.7c3.7-0.3,8.1,3.6,16.1,10.8c5,4.5,11.2,10.1,18.5,15.6c7.1,5.4,14.4,10,20.3,13.8
									c10.8,6.9,15.6,10.1,16.3,13.7c0.2,1.2-0.1,2.3-0.8,3.3C94,274.7,92.3,275.5,89.9,275.5z M25.5,221.1
									c-0.2,3.1,8.7,15.4,28.4,30.3c19.5,14.7,33.7,20,36.8,19.1c-1.3-2-8-6.2-13.8-10c-6-3.8-13.4-8.5-20.7-14
									c-7.4-5.6-13.7-11.3-18.8-15.9C32.8,226.5,27.6,221.8,25.5,221.1z"></path>
							</g>
						</g>
					</g>
					<g>
						<g>
							<g>
								<path class="secret-main-game-9" d="M151.7,278.3c-7,0-12.3-1.8-14.1-6c-0.9-2.1-0.5-3.7,0-4.7c1.7-3.4,6.7-4.7,15.1-6.8
									c6.5-1.6,14.6-3.7,23.4-7.4c8.4-3.5,16.1-7.9,22.8-11.8c9.7-5.6,16.1-9.3,20.4-7.9c1.5,0.5,2.6,1.5,3.2,3
									c1.9,4.6-1,10.5-8.5,17c-6.7,5.8-16.5,11.5-27.4,16.1C174.5,275,161.4,278.3,151.7,278.3z M217.1,238.4
									c-2.7,0-9.6,4-15.8,7.6c-6.6,3.8-14.7,8.5-23.4,12.1c-9.2,3.8-17.5,5.9-24.1,7.6c-5.2,1.3-11.2,2.8-11.8,4.2
									c0,0.1,0,0.3,0.1,0.6c1.9,4.5,18.9,4.8,42.4-5.1c10.5-4.4,19.8-9.8,26.1-15.3c6.5-5.6,8-9.5,7.2-11.3
									c-0.1-0.2-0.1-0.2-0.2-0.3C217.5,238.4,217.4,238.4,217.1,238.4z"></path>
							</g>
						</g>
					</g>
					<g>
						<g>
							<g>
								<path class="secret-main-game-17" d="M224.7,179.1l-0.5-6.1c-0.6-8-5.1-15.1-12-19.2l2.5-4.3c8.3,4.9,13.7,13.5,14.5,23.1l0.5,6.1
									L224.7,179.1z"></path>
							</g>
						</g>
					</g>
					<g>
						<g>
							<g>
								<path class="secret-main-game-17" d="M33.7,155.4l-4.7-1.6l1.7-5c2.7-7.9,9.7-14.1,18.8-16.6l1.3,4.8c-7.5,2-13.2,7-15.4,13.4L33.7,155.4z"></path>
							</g>
						</g>
					</g>
				</g>
			</g>
			<g>
				<g>
					<g>
						<path class="secret-main-game-21" d="M253.9,0c2.2,0,3.9,1.8,3.9,3.9v369c0,2.2-1.8,3.9-3.9,3.9H3.9c-2.2,0-3.9-1.8-3.9-3.9V3.9
							C0,1.8,1.8,0,3.9,0H253.9 M253.9-19.8H3.9c-13.1,0-23.8,10.6-23.8,23.8v369c0,13.1,10.6,23.8,23.8,23.8h250
							c13.1,0,23.8-10.6,23.8-23.8V3.9C277.7-9.2,267.1-19.8,253.9-19.8L253.9-19.8z"></path>
					</g>
				</g>
			</g>
		</g>
	</g>
</svg>
